<?xml version="1.0" encoding="UTF-8"?>
<svg width="15px" height="14px" viewBox="0 0 15 14" version="1.1" xmlns="http://www.w3.org/2000/svg" xmlns:xlink="http://www.w3.org/1999/xlink">
    <!-- Generator: Sketch 56.2 (81672) - https://sketch.com -->
    <title>劳保用品-g@3x</title>
    <desc>Created with Sketch.</desc>
    <g id="购物车" stroke="none" stroke-width="1" fill="none" fill-rule="evenodd">
        <g id="1-购物车" transform="translate(-158.000000, -343.000000)">
            <g id="Group-14-Copy" transform="translate(10.000000, 343.000000)">
                <g id="Group-12" transform="translate(148.000000, 0.000000)">
                    <g id="劳保用品-g">
                        <rect id="Rectangle" x="0" y="0" width="14" height="14"></rect>
                        <path d="M13.6,7.38368945 C14.333475,7.93799637 14.7666667,8.63775652 14.7666667,9.46153846 C14.7666667,11.6808318 11.6226491,13 7.93333333,13 C4.24401753,13 1.1,11.6808318 1.1,9.46153846 C1.1,8.63775652 1.53319165,7.93799637 2.26666667,7.38368945 L2.26666667,5.92307692 C2.26666667,3.5778916 4.04312738,1.61570439 6.42166557,1.12056136 C6.19622158,1.42954278 6.06935715,1.81403068 6.06935715,2.23076923 C6.06935715,3.86575646 7.18199477,5 7.93969136,5 C8.69738795,5 9.81617197,3.86575646 9.81617197,2.23076923 C9.81617197,1.81536564 9.68698806,1.43200641 9.45918538,1.123533 C11.8305984,1.62351077 13.6,3.58255574 13.6,5.92307692 L13.6,7.38368945 Z M2.47816166,9.165519 C2.44858269,9.26244047 2.43333333,9.36124226 2.43333333,9.46153846 C2.43333333,10.7360417 4.89576721,11.7692308 7.93333333,11.7692308 C10.9708995,11.7692308 13.4333333,10.7360417 13.4333333,9.46153846 C13.4333333,9.35312384 13.4155154,9.24645536 13.3810411,9.14202042 C13.3304315,9.20531975 13.271807,9.26285645 13.2059729,9.31300536 C11.8641901,10.3351044 10.1097873,10.8461538 7.94276456,10.8461538 C5.78120632,10.8461538 4.02502922,10.349465 2.67423327,9.35608718 C2.59959024,9.30119939 2.53385095,9.23692118 2.47816166,9.165519 Z M7.93333333,9.30769231 C8.48561808,9.30769231 8.93333333,8.89441669 8.93333333,8.38461538 C8.93333333,7.87481408 8.48561808,7.46153846 7.93333333,7.46153846 C7.38104858,7.46153846 6.93333333,7.87481408 6.93333333,8.38461538 C6.93333333,8.89441669 7.38104858,9.30769231 7.93333333,9.30769231 Z M7.92376322,4.24074332 C7.428556,4.24074332 6.93333333,3.3022667 6.93333333,2.23076923 C6.93333333,1.55103415 7.19695367,1 7.93333333,1 C8.669713,1 8.93333333,1.55103415 8.93333333,2.23076923 C8.93333333,3.22528325 8.41897045,4.24074332 7.92376322,4.24074332 Z" id="Combined-Shape" fill="#9B9B9B" fill-rule="nonzero"></path>
                    </g>
                </g>
            </g>
        </g>
    </g>
</svg>